<?xml version="1.0" standalone="no"?>
<!DOCTYPE svg PUBLIC "-//W3C//DTD SVG 20010904//EN"
 "http://www.w3.org/TR/2001/REC-SVG-20010904/DTD/svg10.dtd">
<svg version="1.0" xmlns="http://www.w3.org/2000/svg"
 width="191.000000pt" height="173.000000pt" viewBox="0 0 191.000000 173.000000"
 preserveAspectRatio="xMidYMid meet">

<g transform="translate(0.000000,173.000000) scale(0.100000,-0.100000)"
fill="#000000" stroke="none">
<path d="M1025 1625 c-137 -20 -239 -45 -252 -63 -8 -9 -13 -11 -13 -4 0 44
-212 -108 -302 -216 -46 -56 -118 -193 -118 -224 1 -15 13 3 35 50 28 60 61
114 112 181 2 2 6 2 9 -1 3 -4 -1 -19 -9 -35 -21 -40 -30 -73 -20 -73 4 0 18
21 30 48 12 26 38 65 57 87 19 22 34 44 33 50 -1 5 6 9 16 7 9 -2 20 4 23 13
7 18 108 89 139 98 178 51 274 67 408 67 68 0 89 -4 146 -31 71 -34 124 -77
148 -122 21 -41 26 -27 7 18 -20 48 -40 65 -142 116 -97 49 -161 56 -307 34z"/>
<path d="M1050 1480 c-87 -9 -118 -18 -191 -55 -107 -53 -213 -149 -264 -237
-21 -37 -23 -48 -12 -48 16 0 97 52 162 105 65 53 143 87 230 100 50 8 67 13
44 14 -104 3 -225 -46 -339 -138 -41 -33 -76 -56 -78 -51 -5 12 45 78 83 110
16 14 45 40 64 58 20 17 39 32 43 32 5 0 25 11 46 24 20 14 66 35 102 47 83
28 255 32 340 7 64 -18 126 -31 118 -23 -11 12 -170 54 -219 58 -30 3 -88 1
-129 -3z"/>
<path d="M372 1420 c-114 -58 -163 -140 -170 -287 l-4 -93 -39 -32 c-21 -18
-51 -43 -68 -56 -47 -36 -51 -88 -11 -168 21 -44 33 -84 36 -127 6 -74 29
-154 53 -182 23 -27 50 -71 79 -127 29 -59 99 -123 165 -153 29 -13 90 -29
137 -36 78 -12 89 -16 132 -55 49 -46 75 -56 141 -57 79 -2 321 23 331 33 8 8
-1 10 -29 6 -22 -3 -105 -8 -185 -11 -144 -5 -146 -5 -200 22 -81 42 -77 53
18 53 82 0 145 12 285 56 43 13 94 24 113 24 58 0 178 64 252 135 37 35 64 66
61 69 -3 4 -26 -13 -50 -37 -61 -59 -124 -100 -204 -132 -75 -30 -95 -25 -50
11 41 33 31 30 -67 -16 -137 -64 -234 -83 -428 -83 -160 -1 -167 0 -217 26
-29 15 -83 53 -120 86 -61 52 -74 71 -130 182 -44 89 -63 139 -67 178 l-6 55
50 -49 c27 -27 62 -68 76 -91 15 -24 34 -46 43 -49 9 -4 6 4 -8 19 -14 14 -23
28 -20 30 2 2 49 -17 104 -44 160 -76 282 -111 400 -115 l100 -4 -95 14 c-96
15 -226 53 -290 85 -31 16 -57 41 -166 162 -13 15 -24 31 -24 36 0 13 -69 149
-69 136 -3 -47 88 -228 121 -242 5 -2 8 -10 8 -18 0 -25 -97 34 -165 101 -150
147 -163 209 -62 283 24 19 50 45 58 58 16 31 25 30 33 -3 4 -16 21 -54 37
-87 98 -190 195 -290 340 -353 52 -23 117 -44 144 -47 44 -6 47 -5 25 6 -50
23 -106 45 -130 51 -32 8 -128 65 -183 111 -52 43 -94 115 -118 205 -15 59
-17 62 -18 29 -1 -21 -5 -38 -9 -38 -13 0 -50 81 -68 150 -24 91 -22 184 4
237 28 53 104 119 173 149 32 14 45 23 33 24 -11 0 -48 -14 -82 -30z"/>
<path d="M700 1428 c-65 -32 -171 -142 -209 -216 -35 -69 -44 -78 -30 -30 11
40 11 38 1 38 -20 0 -30 -72 -27 -190 3 -142 20 -200 83 -282 44 -59 56 -55
13 4 -41 58 -71 149 -71 217 0 113 55 257 125 331 14 14 25 30 25 36 1 5 34
31 75 58 41 27 75 50 75 52 0 8 -17 3 -60 -18z"/>
<path d="M1471 1374 c34 -42 140 -69 177 -45 9 5 -5 11 -39 15 -29 4 -72 16
-95 27 -52 23 -60 24 -43 3z"/>
<path d="M1165 1365 c82 -20 108 -36 219 -134 134 -118 123 -97 105 -195 -30
-163 -78 -276 -147 -348 -51 -54 -60 -47 -17 13 20 28 47 83 61 122 23 69 43
177 31 177 -2 0 -13 -30 -23 -67 -26 -100 -67 -182 -123 -243 -27 -30 -51 -53
-54 -50 -3 3 6 55 20 115 28 126 28 272 0 335 l-16 35 7 -45 c15 -99 7 -201
-22 -270 -36 -86 -41 -101 -21 -67 22 38 29 29 16 -20 -9 -34 -14 -120 -9
-176 1 -10 6 -16 12 -14 6 2 10 13 8 25 -2 15 6 25 28 37 17 9 35 13 40 10 6
-3 10 -2 10 3 0 5 18 27 40 48 91 88 145 198 181 372 10 52 26 115 34 140 19
54 11 69 -10 19 -14 -35 -35 -58 -35 -38 0 17 -112 121 -179 165 -69 46 -125
67 -176 65 -24 -1 -20 -4 20 -14z"/>
<path d="M1100 1337 c19 -7 37 -12 39 -10 9 6 -6 13 -40 18 l-34 6 35 -14z"/>
<path d="M1686 1322 c-9 -27 -2 -76 29 -197 24 -95 25 -112 5 -239 -14 -97
-80 -287 -119 -341 -15 -22 -34 -62 -41 -90 -29 -108 -144 -232 -290 -312 -52
-29 -88 -52 -80 -52 33 0 375 189 422 233 66 62 94 120 142 286 25 86 -7 36
-39 -63 -33 -100 -62 -151 -112 -197 -44 -42 -132 -95 -141 -86 -3 4 15 28 41
54 29 29 56 71 72 110 14 34 41 84 60 111 45 63 72 141 85 249 6 48 17 119 25
157 15 75 15 201 0 225 -16 24 -35 83 -36 110 0 14 -4 34 -8 45 -8 19 -8 19
-15 -3z"/>
<path d="M935 1293 c30 -2 179 -22 215 -28 3 0 39 -14 80 -30 53 -21 89 -43
122 -76 32 -32 43 -39 36 -23 -12 26 -94 94 -113 94 -6 0 -34 11 -62 25 -62
29 -153 45 -248 43 -39 -1 -52 -3 -30 -5z"/>
<path d="M830 1245 c-7 -13 -16 -22 -20 -20 -22 14 -120 -169 -120 -222 0 -18
-3 -33 -6 -33 -13 0 -114 92 -114 104 0 7 18 20 39 29 49 22 151 89 151 99 0
7 -64 -26 -160 -82 -64 -38 -84 -93 -77 -216 5 -89 37 -194 58 -194 11 0 12
-6 -11 68 -15 47 -20 92 -20 168 0 109 14 142 22 52 5 -59 26 -111 71 -175 41
-58 45 -47 8 19 -36 64 -73 166 -65 180 3 5 24 -7 47 -27 45 -38 49 -41 87
-68 36 -25 38 -22 24 33 -12 45 -11 58 9 127 12 42 27 78 33 80 8 3 13 -23 16
-74 4 -58 12 -91 31 -130 34 -67 43 -71 51 -25 9 59 89 122 156 122 16 0 30 5
30 10 0 6 -19 10 -43 10 -51 0 -131 -46 -149 -85 -18 -39 -28 -29 -28 28 1 91
57 129 188 127 97 -2 100 -1 84 8 -7 5 -51 7 -97 6 -93 -3 -162 -28 -189 -66
-16 -22 -16 -21 -16 20 0 23 9 65 20 94 23 61 22 58 12 58 -5 0 -15 -11 -22
-25z"/>
<path d="M1064 1215 c27 -14 51 -23 54 -21 6 6 -74 46 -90 45 -7 0 9 -11 36
-24z"/>
<path d="M1632 1018 c3 -212 2 -226 -19 -275 -25 -59 -23 -71 3 -20 28 52 36
104 41 252 5 150 -3 265 -18 265 -6 0 -8 -88 -7 -222z"/>
<path d="M1586 1153 c-27 -257 -41 -309 -108 -406 -24 -34 -58 -92 -76 -129
-18 -36 -51 -87 -74 -113 -22 -25 -38 -48 -36 -50 8 -8 97 107 120 155 12 25
36 66 54 91 83 119 120 230 130 392 7 121 0 161 -10 60z"/>
<path d="M1131 995 c-11 -20 -21 -40 -21 -44 0 -14 -89 -91 -104 -91 -9 0 -13
-6 -10 -14 3 -7 -5 -20 -18 -28 -25 -16 -132 -53 -188 -64 -39 -7 -160 -59
-160 -69 0 -3 12 1 28 8 31 16 118 42 176 52 21 3 46 10 55 15 9 5 37 18 63
30 56 25 147 116 184 183 30 56 27 75 -5 22z"/>
<path d="M1774 998 c3 -18 9 -68 12 -111 4 -43 11 -80 17 -84 7 -4 8 16 4 58
-14 135 -20 169 -29 169 -6 0 -8 -14 -4 -32z"/>
<path d="M989 983 c-1 -5 -1 -11 -1 -14 1 -4 -13 -9 -30 -13 -41 -8 -68 -33
-68 -63 0 -23 1 -23 34 10 26 27 46 36 87 42 30 4 45 10 34 12 -45 9 -51 13
-35 23 13 8 12 10 -2 10 -10 0 -19 -3 -19 -7z"/>
<path d="M808 883 c7 -3 16 -2 19 1 4 3 -2 6 -13 5 -11 0 -14 -3 -6 -6z"/>
<path d="M880 856 c0 -2 7 -7 16 -10 8 -3 12 -2 9 4 -6 10 -25 14 -25 6z"/>
<path d="M1153 698 c-12 -16 -24 -48 -18 -48 2 0 11 14 20 30 16 31 15 40 -2
18z"/>
<path d="M613 645 c48 -44 71 -59 47 -30 -19 23 2 19 77 -15 36 -17 68 -28 70
-26 2 2 -24 18 -59 36 -35 18 -70 37 -78 41 -8 5 -35 15 -60 23 l-45 15 48
-44z"/>
<path d="M828 563 c7 -3 16 -2 19 1 4 3 -2 6 -13 5 -11 0 -14 -3 -6 -6z"/>
<path d="M1100 480 c-8 -5 -10 -10 -5 -10 6 0 17 5 25 10 8 5 11 10 5 10 -5 0
-17 -5 -25 -10z"/>
<path d="M1220 402 c-19 -16 -53 -41 -75 -55 -22 -15 -35 -27 -28 -27 12 0
129 85 138 101 10 15 1 10 -35 -19z"/>
<path d="M478 367 c6 -7 35 -24 64 -36 29 -13 60 -27 69 -31 16 -8 154 -27
248 -33 87 -7 35 9 -90 27 -105 15 -250 56 -273 77 -15 14 -30 10 -18 -4z"/>
<path d="M1000 293 c-14 -3 -29 -9 -34 -14 -14 -13 1 -11 54 5 43 14 33 18
-20 9z"/>
</g>
</svg>
